# xmcd
#
# Track frame offsets: 
#        150
#        13632
#        30812
#        44180
#        61352
#        75207
#        93817
#        105350
#        118347
#        132277
#        151377
#        171612
#
# Disc length: 2451 seconds
#
# Revision: 3
# Processed by: cddbd v1.5.1PL0 Copyright (c) Steve Scherf et al.
# Submitted via: ExactAudioCopy v0.95a5
#
DISCID=9009910c
DTITLE=Sons of the San Joaquin - Gospel Trails
DYEAR=1997
DGENRE=Gospel
TTITLE0=Read the Bible
TTITLE1=God Leads His Dear Children Along
TTITLE2=The Lily of the Valley
TTITLE3=Lead Me Gently Home
TTITLE4=The Unclouded Day
TTITLE5=Beyond the Sunset
TTITLE6=There's Power in the Blood
TTITLE7=Precious Lord, Take My Hand
TTITLE8=In the Sweet By and By
TTITLE9=Medley-Sweet Hour of Prayer-Amazing Grace-Great Is Thy Faithfu
TTITLE9=lness
TTITLE10=It Is No Secret
TTITLE11=I'll Fly Away
EXTD=For those of you who may not be acquainted with the Sons of the S
EXTD=an Joaquin, we are a family trio composed of brothers, Joe and Ja
EXTD=ck Hannah, and Joe's son, Lon.  We sing western music-songs which
EXTD=celebrate the life and work and the geographical setting of the 
EXTD=American cowboy.  At the request of our friends and loyal fans, a
EXTD=nd because of the impact gospel music has had in our lives, we de
EXTD=cided to do this special project we call Gospel Trails.  We have 
EXTD=remained true to our western style of arranging and singing, and 
EXTD=what you will hear is what we call cowboy gospel.  We loved and l
EXTD=ived these songs.\n\nJack Hannah YEAR: 1997
EXTT0=
EXTT1=
EXTT2=
EXTT3=
EXTT4=
EXTT5=
EXTT6=
EXTT7=
EXTT8=
EXTT9=
EXTT10=
EXTT11=
PLAYORDER=
